<svg width="63" height="74" viewBox="0 0 63 74" fill="none" xmlns="http://www.w3.org/2000/svg">
<path d="M31.3752 3.51779C25.2133 3.51778 10.5271 -6.0185 3.05975 6.59873C-3.69416 18.0105 2.27956 37.9715 6.19468 46.7381C10.3825 41.0852 14.7968 30.6595 31.3752 30.6595C45.0392 30.6595 50.5945 37.555 56.7565 46.9446C65.1191 22.2969 61.7447 11.0001 59.544 6.59873C49.4208 -6.16522 37.5372 3.5178 31.3752 3.51779Z" fill="white"/>
<path d="M30.7884 35.354C35.8744 35.1094 47.3086 37.5534 52.355 48.1169C56.4209 56.6277 52.355 66.8975 49.4207 71.2989C48.5474 72.4545 47.4608 73.2323 46.6333 73.498C43.8457 73.498 43.2249 72.1792 42.3786 67.6306C41.2049 61.322 43.4056 45.6238 30.7884 45.6238C20.6946 45.6238 21.1053 58.0943 20.2251 67.6306C19.6382 70.4182 19.6089 73.498 17.7309 73.498C16.2638 73.498 14.5944 73.1794 13.1828 71.2989C9.36831 65.2837 6.6124 55.3073 10.2486 48.1169C15.4129 37.9049 26.0936 35.3533 30.7884 35.354Z" fill="#419DAF"/>
</svg>
