<svg width="256" height="118" viewBox="0 0 256 118" fill="none" xmlns="http://www.w3.org/2000/svg">
<path d="M243.31 46.6199C240.21 46.6199 237.461 45.9586 235.064 44.636C232.708 43.3133 230.848 41.4533 229.484 39.0559C228.12 36.6173 227.438 33.7653 227.438 30.4999C227.438 27.0279 228.099 24.0726 229.422 21.6339C230.786 19.1953 232.522 17.3353 234.63 16.0539C236.779 14.7313 239.052 14.0699 241.45 14.0699C243.186 14.0699 244.88 14.3593 246.534 14.9379C248.187 15.4753 249.654 16.3433 250.936 17.5419C252.258 18.6993 253.312 20.1666 254.098 21.9439C254.924 23.6799 255.379 25.7673 255.462 28.2059C255.462 28.5366 255.338 28.8466 255.09 29.1359C254.842 29.3839 254.552 29.5079 254.221 29.5079H228.926L228.553 27.1519H253.54L252.92 27.7099V26.5939C252.713 24.4033 252.01 22.5639 250.812 21.0759C249.654 19.5879 248.249 18.4719 246.596 17.7279C244.942 16.9426 243.227 16.5499 241.45 16.5499C240.21 16.5499 238.908 16.8393 237.544 17.4179C236.18 17.9553 234.919 18.8026 233.762 19.9599C232.604 21.0759 231.654 22.5019 230.91 24.2379C230.207 25.9739 229.855 27.9993 229.855 30.3139C229.855 32.8353 230.352 35.1499 231.344 37.2579C232.377 39.3659 233.886 41.0606 235.87 42.3419C237.895 43.6233 240.375 44.2639 243.31 44.2639C244.715 44.2639 246.037 44.0366 247.277 43.5819C248.517 43.0859 249.634 42.4453 250.626 41.6599C251.618 40.8746 252.424 40.0273 253.044 39.1179C253.374 38.7459 253.726 38.5599 254.098 38.5599C254.387 38.5599 254.635 38.6839 254.842 38.9319C255.048 39.1386 255.152 39.3866 255.152 39.6759C255.152 39.9653 255.069 40.2133 254.904 40.4199C253.622 42.0733 251.969 43.5199 249.943 44.7599C247.959 45.9999 245.748 46.6199 243.31 46.6199Z" fill="white"/>
<path d="M222.474 44.76C222.474 45.0907 222.35 45.38 222.102 45.628C221.854 45.876 221.565 46 221.234 46C220.862 46 220.552 45.876 220.304 45.628C220.097 45.38 219.994 45.0907 219.994 44.76V1.35999C219.994 1.02933 220.118 0.739994 220.366 0.491995C220.614 0.243996 220.903 0.119995 221.234 0.119995C221.606 0.119995 221.895 0.243996 222.102 0.491995C222.35 0.739994 222.474 1.02933 222.474 1.35999V44.76Z" fill="white"/>
<path d="M200.053 14.07C202.822 14.07 205.281 14.7727 207.431 16.178C209.58 17.542 211.275 19.4433 212.515 21.882C213.796 24.2793 214.437 27.0487 214.437 30.19C214.437 33.29 213.796 36.08 212.515 38.56C211.275 41.04 209.559 43.0033 207.369 44.45C205.219 45.8967 202.781 46.62 200.053 46.62C198.689 46.62 197.366 46.4133 196.085 46C194.845 45.5867 193.687 45.008 192.613 44.264C191.538 43.4787 190.546 42.5487 189.637 41.474C188.769 40.358 188.004 39.118 187.343 37.754L188.149 36.886V44.76C188.149 45.0907 188.025 45.38 187.777 45.628C187.57 45.876 187.281 46 186.909 46C186.578 46 186.289 45.876 186.041 45.628C185.793 45.38 185.669 45.0907 185.669 44.76V1.422C185.669 1.09134 185.772 0.802004 185.979 0.554005C186.227 0.306005 186.537 0.182007 186.909 0.182007C187.281 0.182007 187.57 0.306005 187.777 0.554005C188.025 0.802004 188.149 1.09134 188.149 1.422V23.866L187.343 23.432C187.921 21.9027 188.645 20.5593 189.513 19.402C190.381 18.2447 191.373 17.2733 192.489 16.488C193.605 15.7027 194.803 15.1033 196.085 14.69C197.366 14.2767 198.689 14.07 200.053 14.07ZM199.929 16.426C197.573 16.426 195.485 17.0253 193.667 18.224C191.889 19.3813 190.484 20.9933 189.451 23.06C188.417 25.1267 187.901 27.5033 187.901 30.19C187.901 32.8767 188.417 35.2947 189.451 37.444C190.484 39.552 191.889 41.226 193.667 42.466C195.485 43.6647 197.573 44.264 199.929 44.264C202.243 44.264 204.289 43.644 206.067 42.404C207.885 41.164 209.311 39.49 210.345 37.382C211.419 35.2327 211.957 32.8353 211.957 30.19C211.957 27.5033 211.419 25.1267 210.345 23.06C209.311 20.9933 207.885 19.3813 206.067 18.224C204.289 17.0253 202.243 16.426 199.929 16.426Z" fill="white"/>
<path d="M177.259 15.0619C177.631 15.0619 177.921 15.1859 178.127 15.4339C178.375 15.6819 178.499 15.9713 178.499 16.3019V44.7599C178.499 45.0906 178.375 45.3799 178.127 45.6279C177.879 45.8759 177.59 45.9999 177.259 45.9999C176.887 45.9999 176.577 45.8759 176.329 45.6279C176.123 45.3799 176.019 45.0906 176.019 44.7599V35.9559L177.011 35.1499C177.011 36.4726 176.681 37.8159 176.019 39.1799C175.358 40.5439 174.449 41.7839 173.291 42.9C172.134 44.0159 170.77 44.9253 169.199 45.6279C167.629 46.2893 165.934 46.6199 164.115 46.6199C161.346 46.6199 158.866 45.8966 156.675 44.4499C154.526 43.0033 152.831 41.0399 151.591 38.5599C150.351 36.08 149.731 33.2899 149.731 30.1899C149.731 27.0486 150.351 24.2793 151.591 21.8819C152.873 19.4433 154.588 17.5419 156.737 16.1779C158.928 14.7726 161.387 14.0699 164.115 14.0699C165.893 14.0699 167.567 14.4006 169.137 15.0619C170.708 15.6819 172.072 16.5706 173.229 17.7279C174.428 18.8853 175.358 20.2493 176.019 21.8199C176.681 23.3493 177.011 25.0233 177.011 26.8419L176.019 25.2919V16.3019C176.019 15.9713 176.123 15.6819 176.329 15.4339C176.577 15.1859 176.887 15.0619 177.259 15.0619ZM164.239 44.2639C166.554 44.2639 168.621 43.6646 170.439 42.4659C172.258 41.2259 173.684 39.5519 174.717 37.4439C175.751 35.2946 176.267 32.8766 176.267 30.1899C176.267 27.6273 175.751 25.3126 174.717 23.2459C173.684 21.1379 172.258 19.4846 170.439 18.2859C168.621 17.0459 166.554 16.4259 164.239 16.4259C161.966 16.4259 159.92 17.0253 158.101 18.2239C156.283 19.3813 154.836 20.9933 153.761 23.0599C152.728 25.1266 152.211 27.5033 152.211 30.1899C152.211 32.8766 152.728 35.2946 153.761 37.4439C154.795 39.5519 156.221 41.2259 158.039 42.4659C159.858 43.6646 161.925 44.2639 164.239 44.2639Z" fill="white"/>
<path d="M133.347 14.0699C135.951 14.0699 138.059 14.5866 139.671 15.6199C141.324 16.6533 142.523 18.0586 143.267 19.8359C144.052 21.6133 144.445 23.5973 144.445 25.7879V44.7599C144.445 45.0906 144.321 45.3799 144.073 45.6279C143.825 45.8759 143.536 45.9999 143.205 45.9999C142.833 45.9999 142.523 45.8759 142.275 45.6279C142.068 45.3799 141.965 45.0906 141.965 44.7599V26.0359C141.965 24.2586 141.655 22.6466 141.035 21.1999C140.456 19.7533 139.506 18.5959 138.183 17.7279C136.902 16.8599 135.207 16.4259 133.099 16.4259C131.28 16.4259 129.503 16.8599 127.767 17.7279C126.031 18.5959 124.584 19.7533 123.427 21.1999C122.311 22.6466 121.753 24.2586 121.753 26.0359V44.7599C121.753 45.0906 121.629 45.3799 121.381 45.6279C121.133 45.8759 120.844 45.9999 120.513 45.9999C120.141 45.9999 119.831 45.8759 119.583 45.6279C119.376 45.3799 119.273 45.0906 119.273 44.7599V16.3019C119.273 15.9713 119.397 15.6819 119.645 15.4339C119.893 15.1859 120.182 15.0619 120.513 15.0619C120.885 15.0619 121.174 15.1859 121.381 15.4339C121.629 15.6819 121.753 15.9713 121.753 16.3019V22.3779L120.203 25.3539C120.203 23.8659 120.596 22.4399 121.381 21.0759C122.166 19.7119 123.2 18.5133 124.481 17.4799C125.762 16.4053 127.168 15.5786 128.697 14.9999C130.268 14.3799 131.818 14.0699 133.347 14.0699Z" fill="white"/>
<path d="M101.872 46.6199C98.772 46.6199 96.0233 45.9586 93.626 44.636C91.27 43.3133 89.41 41.4533 88.046 39.0559C86.682 36.6173 86 33.7653 86 30.4999C86 27.0279 86.6613 24.0726 87.984 21.6339C89.348 19.1953 91.084 17.3353 93.192 16.0539C95.3413 14.7313 97.6147 14.0699 100.012 14.0699C101.748 14.0699 103.443 14.3593 105.096 14.9379C106.749 15.4753 108.217 16.3433 109.498 17.5419C110.821 18.6993 111.875 20.1666 112.66 21.9439C113.487 23.6799 113.941 25.7673 114.024 28.2059C114.024 28.5366 113.9 28.8466 113.652 29.1359C113.404 29.3839 113.115 29.5079 112.784 29.5079H87.488L87.116 27.1519H112.102L111.482 27.7099V26.5939C111.275 24.4033 110.573 22.5639 109.374 21.0759C108.217 19.5879 106.811 18.4719 105.158 17.7279C103.505 16.9426 101.789 16.5499 100.012 16.5499C98.772 16.5499 97.47 16.8393 96.106 17.4179C94.742 17.9553 93.4813 18.8026 92.324 19.9599C91.1667 21.0759 90.216 22.5019 89.472 24.2379C88.7693 25.9739 88.418 27.9993 88.418 30.3139C88.418 32.8353 88.914 35.1499 89.906 37.2579C90.9393 39.3659 92.448 41.0606 94.432 42.3419C96.4573 43.6233 98.9373 44.2639 101.872 44.2639C103.277 44.2639 104.6 44.0366 105.84 43.5819C107.08 43.0859 108.196 42.4453 109.188 41.6599C110.18 40.8746 110.986 40.0273 111.606 39.1179C111.937 38.7459 112.288 38.5599 112.66 38.5599C112.949 38.5599 113.197 38.6839 113.404 38.9319C113.611 39.1386 113.714 39.3866 113.714 39.6759C113.714 39.9653 113.631 40.2133 113.466 40.4199C112.185 42.0733 110.531 43.5199 108.506 44.7599C106.522 45.9999 104.311 46.6199 101.872 46.6199Z" fill="white"/>
<path d="M194.746 118H187.988V75.84H194.746V118ZM218.368 90.0999C218.368 93.2413 217.728 95.9486 216.446 98.222C215.165 100.454 213.47 102.169 211.362 103.368C209.254 104.525 206.96 105.104 204.48 105.104C202.042 105.104 199.913 104.505 198.094 103.306C196.317 102.066 194.932 100.33 193.94 98.0979C192.99 95.8246 192.514 93.1586 192.514 90.0999C192.514 86.9999 192.99 84.3339 193.94 82.1019C194.932 79.8699 196.317 78.1546 198.094 76.9559C199.913 75.7159 202.042 75.0959 204.48 75.0959C206.96 75.0959 209.254 75.6953 211.362 76.894C213.47 78.0513 215.165 79.7459 216.446 81.9779C217.728 84.2099 218.368 86.9173 218.368 90.0999ZM211.424 90.0999C211.424 88.1986 211.032 86.5866 210.246 85.264C209.461 83.9 208.407 82.8873 207.084 82.2259C205.803 81.5233 204.377 81.172 202.806 81.172C201.525 81.172 200.264 81.5233 199.024 82.2259C197.784 82.8873 196.751 83.8793 195.924 85.202C195.139 86.5246 194.746 88.1573 194.746 90.0999C194.746 92.0426 195.139 93.6753 195.924 94.998C196.751 96.3206 197.784 97.3333 199.024 98.0359C200.264 98.6973 201.525 99.028 202.806 99.028C204.377 99.028 205.803 98.6973 207.084 98.0359C208.407 97.3333 209.461 96.3206 210.246 94.998C211.032 93.634 211.424 92.0013 211.424 90.0999Z" fill="white"/>
<path d="M169.135 104.98C166.242 104.98 163.679 104.36 161.447 103.12C159.256 101.88 157.562 100.144 156.363 97.912C155.164 95.68 154.565 93.076 154.565 90.1C154.565 87.0826 155.164 84.458 156.363 82.226C157.603 79.994 159.339 78.2786 161.571 77.08C163.803 75.84 166.428 75.22 169.445 75.22C172.462 75.22 175.025 75.7986 177.133 76.956C179.241 78.1133 180.853 79.7873 181.969 81.978C183.126 84.1273 183.705 86.7313 183.705 89.79C183.705 90.1206 183.684 90.472 183.643 90.844C183.643 91.216 183.622 91.4846 183.581 91.65H158.533V87.062H177.877L175.831 89.914C175.955 89.666 176.079 89.3353 176.203 88.922C176.368 88.4673 176.451 88.0953 176.451 87.806C176.451 86.2766 176.141 84.954 175.521 83.838C174.942 82.722 174.116 81.854 173.041 81.234C172.008 80.614 170.788 80.304 169.383 80.304C167.688 80.304 166.242 80.676 165.043 81.42C163.844 82.164 162.935 83.2386 162.315 84.644C161.695 86.0493 161.364 87.7853 161.323 89.852C161.323 91.9186 161.633 93.6753 162.253 95.122C162.873 96.5273 163.782 97.602 164.981 98.346C166.221 99.09 167.709 99.462 169.445 99.462C171.264 99.462 172.855 99.09 174.219 98.346C175.583 97.602 176.72 96.4653 177.629 94.936L183.395 97.292C181.907 99.8546 179.985 101.777 177.629 103.058C175.273 104.339 172.442 104.98 169.135 104.98Z" fill="white"/>
<path d="M137.634 104.98C134.74 104.98 132.178 104.36 129.946 103.12C127.755 101.88 126.06 100.144 124.862 97.912C123.663 95.68 123.064 93.076 123.064 90.1C123.064 87.0826 123.663 84.458 124.862 82.226C126.102 79.994 127.838 78.2786 130.07 77.08C132.302 75.84 134.926 75.22 137.944 75.22C140.961 75.22 143.524 75.7986 145.632 76.956C147.74 78.1133 149.352 79.7873 150.468 81.978C151.625 84.1273 152.204 86.7313 152.204 89.79C152.204 90.1206 152.183 90.472 152.142 90.844C152.142 91.216 152.121 91.4846 152.08 91.65H127.032V87.062H146.376L144.33 89.914C144.454 89.666 144.578 89.3353 144.702 88.922C144.867 88.4673 144.95 88.0953 144.95 87.806C144.95 86.2766 144.64 84.954 144.02 83.838C143.441 82.722 142.614 81.854 141.54 81.234C140.506 80.614 139.287 80.304 137.882 80.304C136.187 80.304 134.74 80.676 133.542 81.42C132.343 82.164 131.434 83.2386 130.814 84.644C130.194 86.0493 129.863 87.7853 129.822 89.852C129.822 91.9186 130.132 93.6753 130.752 95.122C131.372 96.5273 132.281 97.602 133.48 98.346C134.72 99.09 136.208 99.462 137.944 99.462C139.762 99.462 141.354 99.09 142.718 98.346C144.082 97.602 145.218 96.4653 146.128 94.936L151.894 97.292C150.406 99.8546 148.484 101.777 146.128 103.058C143.772 104.339 140.94 104.98 137.634 104.98Z" fill="white"/>
<path d="M111.836 56H118.532V104.36H111.836V56Z" fill="white"/>
<path d="M89.906 93.638C90.8153 94.63 91.7247 95.498 92.634 96.242C93.5847 96.9447 94.5353 97.482 95.486 97.854C96.4367 98.1847 97.3873 98.35 98.338 98.35C99.5367 98.35 100.467 98.0813 101.128 97.544C101.831 97.0067 102.182 96.2627 102.182 95.312C102.182 94.4853 101.913 93.7827 101.376 93.204C100.839 92.584 100.095 92.0673 99.144 91.654C98.1933 91.1993 97.0773 90.7447 95.796 90.29C94.5147 89.794 93.2333 89.2153 91.952 88.554C90.712 87.8513 89.6787 86.942 88.852 85.826C88.0667 84.71 87.674 83.3047 87.674 81.61C87.674 79.874 88.108 78.4273 88.976 77.27C89.8853 76.1127 91.084 75.2653 92.572 74.728C94.1013 74.1493 95.734 73.86 97.47 73.86C99.0407 73.86 100.508 74.0873 101.872 74.542C103.277 74.9967 104.538 75.596 105.654 76.34C106.77 77.084 107.721 77.9313 108.506 78.882L104.786 82.85C103.835 81.734 102.699 80.8247 101.376 80.122C100.053 79.4193 98.6893 79.068 97.284 79.068C96.3333 79.068 95.548 79.2747 94.928 79.688C94.308 80.1013 93.998 80.7007 93.998 81.486C93.998 82.1473 94.2667 82.7467 94.804 83.284C95.3827 83.78 96.1267 84.2347 97.036 84.648C97.9867 85.0613 99.0407 85.4953 100.198 85.95C101.769 86.57 103.215 87.252 104.538 87.996C105.861 88.74 106.915 89.6493 107.7 90.724C108.527 91.7987 108.94 93.204 108.94 94.94C108.94 97.6267 108.01 99.7967 106.15 101.45C104.331 103.062 101.851 103.868 98.71 103.868C96.7673 103.868 94.9693 103.579 93.316 103C91.704 102.38 90.278 101.595 89.038 100.644C87.8393 99.652 86.8267 98.6187 86 97.544L89.906 93.638Z" fill="white"/>
<path d="M31.3752 22.5178C25.2133 22.5178 10.5271 12.9815 3.05975 25.5987C-3.69416 37.0105 2.27956 56.9715 6.19468 65.7381C10.3825 60.0852 14.7968 49.6595 31.3752 49.6595C45.0392 49.6595 50.5945 56.555 56.7565 65.9446C65.1191 41.2969 61.7447 30.0001 59.544 25.5987C49.4208 12.8348 37.5372 22.5178 31.3752 22.5178Z" fill="white"/>
<path d="M30.7884 54.354C35.8744 54.1094 47.3086 56.5534 52.355 67.1169C56.4209 75.6277 52.355 85.8975 49.4207 90.2989C48.5474 91.4545 47.4608 92.2323 46.6333 92.498C43.8457 92.498 43.2249 91.1792 42.3786 86.6306C41.2049 80.322 43.4056 64.6238 30.7884 64.6238C20.6946 64.6238 21.1053 77.0943 20.2251 86.6306C19.6382 89.4182 19.6089 92.498 17.7309 92.498C16.2638 92.498 14.5944 92.1794 13.1828 90.2989C9.36831 84.2837 6.6124 74.3073 10.2486 67.1169C15.4129 56.9049 26.0936 54.3533 30.7884 54.354Z" fill="#419DAF"/>
</svg>
