<svg width="260" height="118" viewBox="0 0 260 118" fill="none" xmlns="http://www.w3.org/2000/svg">
<path d="M247.31 46.6199C244.21 46.6199 241.461 45.9586 239.064 44.636C236.708 43.3133 234.848 41.4533 233.484 39.0559C232.12 36.6173 231.438 33.7653 231.438 30.4999C231.438 27.0279 232.099 24.0726 233.422 21.6339C234.786 19.1953 236.522 17.3353 238.63 16.0539C240.779 14.7313 243.052 14.0699 245.45 14.0699C247.186 14.0699 248.88 14.3593 250.534 14.9379C252.187 15.4753 253.654 16.3433 254.936 17.5419C256.258 18.6993 257.312 20.1666 258.098 21.9439C258.924 23.6799 259.379 25.7673 259.462 28.2059C259.462 28.5366 259.338 28.8466 259.09 29.1359C258.842 29.3839 258.552 29.5079 258.221 29.5079H232.926L232.553 27.1519H257.54L256.92 27.7099V26.5939C256.713 24.4033 256.01 22.5639 254.812 21.0759C253.654 19.5879 252.249 18.4719 250.596 17.7279C248.942 16.9426 247.227 16.5499 245.45 16.5499C244.21 16.5499 242.908 16.8393 241.544 17.4179C240.18 17.9553 238.919 18.8026 237.762 19.9599C236.604 21.0759 235.654 22.5019 234.91 24.2379C234.207 25.9739 233.855 27.9993 233.855 30.3139C233.855 32.8353 234.352 35.1499 235.344 37.2579C236.377 39.3659 237.886 41.0606 239.87 42.3419C241.895 43.6233 244.375 44.2639 247.31 44.2639C248.715 44.2639 250.037 44.0366 251.277 43.5819C252.517 43.0859 253.634 42.4453 254.626 41.6599C255.618 40.8746 256.424 40.0273 257.044 39.1179C257.374 38.7459 257.726 38.5599 258.098 38.5599C258.387 38.5599 258.635 38.6839 258.842 38.9319C259.048 39.1386 259.152 39.3866 259.152 39.6759C259.152 39.9653 259.069 40.2133 258.904 40.4199C257.622 42.0733 255.969 43.5199 253.943 44.7599C251.959 45.9999 249.748 46.6199 247.31 46.6199Z" fill="#373737"/>
<path d="M226.474 44.76C226.474 45.0907 226.35 45.38 226.102 45.628C225.854 45.876 225.565 46 225.234 46C224.862 46 224.552 45.876 224.304 45.628C224.097 45.38 223.994 45.0907 223.994 44.76V1.35999C223.994 1.02933 224.118 0.739994 224.366 0.491995C224.614 0.243996 224.903 0.119995 225.234 0.119995C225.606 0.119995 225.895 0.243996 226.102 0.491995C226.35 0.739994 226.474 1.02933 226.474 1.35999V44.76Z" fill="#373737"/>
<path d="M204.053 14.07C206.822 14.07 209.281 14.7727 211.431 16.178C213.58 17.542 215.275 19.4433 216.515 21.882C217.796 24.2793 218.437 27.0487 218.437 30.19C218.437 33.29 217.796 36.08 216.515 38.56C215.275 41.04 213.559 43.0033 211.369 44.45C209.219 45.8967 206.781 46.62 204.053 46.62C202.689 46.62 201.366 46.4133 200.085 46C198.845 45.5867 197.687 45.008 196.613 44.264C195.538 43.4787 194.546 42.5487 193.637 41.474C192.769 40.358 192.004 39.118 191.343 37.754L192.149 36.886V44.76C192.149 45.0907 192.025 45.38 191.777 45.628C191.57 45.876 191.281 46 190.909 46C190.578 46 190.289 45.876 190.041 45.628C189.793 45.38 189.669 45.0907 189.669 44.76V1.422C189.669 1.09134 189.772 0.802004 189.979 0.554005C190.227 0.306005 190.537 0.182007 190.909 0.182007C191.281 0.182007 191.57 0.306005 191.777 0.554005C192.025 0.802004 192.149 1.09134 192.149 1.422V23.866L191.343 23.432C191.921 21.9027 192.645 20.5593 193.513 19.402C194.381 18.2447 195.373 17.2733 196.489 16.488C197.605 15.7027 198.803 15.1033 200.085 14.69C201.366 14.2767 202.689 14.07 204.053 14.07ZM203.929 16.426C201.573 16.426 199.485 17.0253 197.667 18.224C195.889 19.3813 194.484 20.9933 193.451 23.06C192.417 25.1267 191.901 27.5033 191.901 30.19C191.901 32.8767 192.417 35.2947 193.451 37.444C194.484 39.552 195.889 41.226 197.667 42.466C199.485 43.6647 201.573 44.264 203.929 44.264C206.243 44.264 208.289 43.644 210.067 42.404C211.885 41.164 213.311 39.49 214.345 37.382C215.419 35.2327 215.957 32.8353 215.957 30.19C215.957 27.5033 215.419 25.1267 214.345 23.06C213.311 20.9933 211.885 19.3813 210.067 18.224C208.289 17.0253 206.243 16.426 203.929 16.426Z" fill="#373737"/>
<path d="M181.259 15.0619C181.631 15.0619 181.921 15.1859 182.127 15.4339C182.375 15.6819 182.499 15.9713 182.499 16.3019V44.7599C182.499 45.0906 182.375 45.3799 182.127 45.6279C181.879 45.8759 181.59 45.9999 181.259 45.9999C180.887 45.9999 180.577 45.8759 180.329 45.6279C180.123 45.3799 180.019 45.0906 180.019 44.7599V35.9559L181.011 35.1499C181.011 36.4726 180.681 37.8159 180.019 39.1799C179.358 40.5439 178.449 41.7839 177.291 42.9C176.134 44.0159 174.77 44.9253 173.199 45.6279C171.629 46.2893 169.934 46.6199 168.115 46.6199C165.346 46.6199 162.866 45.8966 160.675 44.4499C158.526 43.0033 156.831 41.0399 155.591 38.5599C154.351 36.08 153.731 33.2899 153.731 30.1899C153.731 27.0486 154.351 24.2793 155.591 21.8819C156.873 19.4433 158.588 17.5419 160.737 16.1779C162.928 14.7726 165.387 14.0699 168.115 14.0699C169.893 14.0699 171.567 14.4006 173.137 15.0619C174.708 15.6819 176.072 16.5706 177.229 17.7279C178.428 18.8853 179.358 20.2493 180.019 21.8199C180.681 23.3493 181.011 25.0233 181.011 26.8419L180.019 25.2919V16.3019C180.019 15.9713 180.123 15.6819 180.329 15.4339C180.577 15.1859 180.887 15.0619 181.259 15.0619ZM168.239 44.2639C170.554 44.2639 172.621 43.6646 174.439 42.4659C176.258 41.2259 177.684 39.5519 178.717 37.4439C179.751 35.2946 180.267 32.8766 180.267 30.1899C180.267 27.6273 179.751 25.3126 178.717 23.2459C177.684 21.1379 176.258 19.4846 174.439 18.2859C172.621 17.0459 170.554 16.4259 168.239 16.4259C165.966 16.4259 163.92 17.0253 162.101 18.2239C160.283 19.3813 158.836 20.9933 157.761 23.0599C156.728 25.1266 156.211 27.5033 156.211 30.1899C156.211 32.8766 156.728 35.2946 157.761 37.4439C158.795 39.5519 160.221 41.2259 162.039 42.4659C163.858 43.6646 165.925 44.2639 168.239 44.2639Z" fill="#373737"/>
<path d="M137.347 14.0699C139.951 14.0699 142.059 14.5866 143.671 15.6199C145.324 16.6533 146.523 18.0586 147.267 19.8359C148.052 21.6133 148.445 23.5973 148.445 25.7879V44.7599C148.445 45.0906 148.321 45.3799 148.073 45.6279C147.825 45.8759 147.536 45.9999 147.205 45.9999C146.833 45.9999 146.523 45.8759 146.275 45.6279C146.068 45.3799 145.965 45.0906 145.965 44.7599V26.0359C145.965 24.2586 145.655 22.6466 145.035 21.1999C144.456 19.7533 143.506 18.5959 142.183 17.7279C140.902 16.8599 139.207 16.4259 137.099 16.4259C135.28 16.4259 133.503 16.8599 131.767 17.7279C130.031 18.5959 128.584 19.7533 127.427 21.1999C126.311 22.6466 125.753 24.2586 125.753 26.0359V44.7599C125.753 45.0906 125.629 45.3799 125.381 45.6279C125.133 45.8759 124.844 45.9999 124.513 45.9999C124.141 45.9999 123.831 45.8759 123.583 45.6279C123.376 45.3799 123.273 45.0906 123.273 44.7599V16.3019C123.273 15.9713 123.397 15.6819 123.645 15.4339C123.893 15.1859 124.182 15.0619 124.513 15.0619C124.885 15.0619 125.174 15.1859 125.381 15.4339C125.629 15.6819 125.753 15.9713 125.753 16.3019V22.3779L124.203 25.3539C124.203 23.8659 124.596 22.4399 125.381 21.0759C126.166 19.7119 127.2 18.5133 128.481 17.4799C129.762 16.4053 131.168 15.5786 132.697 14.9999C134.268 14.3799 135.818 14.0699 137.347 14.0699Z" fill="#373737"/>
<path d="M105.872 46.6199C102.772 46.6199 100.023 45.9586 97.626 44.636C95.27 43.3133 93.41 41.4533 92.046 39.0559C90.682 36.6173 90 33.7653 90 30.4999C90 27.0279 90.6613 24.0726 91.984 21.6339C93.348 19.1953 95.084 17.3353 97.192 16.0539C99.3413 14.7313 101.615 14.0699 104.012 14.0699C105.748 14.0699 107.443 14.3593 109.096 14.9379C110.749 15.4753 112.217 16.3433 113.498 17.5419C114.821 18.6993 115.875 20.1666 116.66 21.9439C117.487 23.6799 117.941 25.7673 118.024 28.2059C118.024 28.5366 117.9 28.8466 117.652 29.1359C117.404 29.3839 117.115 29.5079 116.784 29.5079H91.488L91.116 27.1519H116.102L115.482 27.7099V26.5939C115.275 24.4033 114.573 22.5639 113.374 21.0759C112.217 19.5879 110.811 18.4719 109.158 17.7279C107.505 16.9426 105.789 16.5499 104.012 16.5499C102.772 16.5499 101.47 16.8393 100.106 17.4179C98.742 17.9553 97.4813 18.8026 96.324 19.9599C95.1667 21.0759 94.216 22.5019 93.472 24.2379C92.7693 25.9739 92.418 27.9993 92.418 30.3139C92.418 32.8353 92.914 35.1499 93.906 37.2579C94.9393 39.3659 96.448 41.0606 98.432 42.3419C100.457 43.6233 102.937 44.2639 105.872 44.2639C107.277 44.2639 108.6 44.0366 109.84 43.5819C111.08 43.0859 112.196 42.4453 113.188 41.6599C114.18 40.8746 114.986 40.0273 115.606 39.1179C115.937 38.7459 116.288 38.5599 116.66 38.5599C116.949 38.5599 117.197 38.6839 117.404 38.9319C117.611 39.1386 117.714 39.3866 117.714 39.6759C117.714 39.9653 117.631 40.2133 117.466 40.4199C116.185 42.0733 114.531 43.5199 112.506 44.7599C110.522 45.9999 108.311 46.6199 105.872 46.6199Z" fill="#373737"/>
<path d="M198.746 118H191.988V75.84H198.746V118ZM222.368 90.0999C222.368 93.2413 221.728 95.9486 220.446 98.222C219.165 100.454 217.47 102.169 215.362 103.368C213.254 104.525 210.96 105.104 208.48 105.104C206.042 105.104 203.913 104.505 202.094 103.306C200.317 102.066 198.932 100.33 197.94 98.0979C196.99 95.8246 196.514 93.1586 196.514 90.0999C196.514 86.9999 196.99 84.3339 197.94 82.1019C198.932 79.8699 200.317 78.1546 202.094 76.9559C203.913 75.7159 206.042 75.0959 208.48 75.0959C210.96 75.0959 213.254 75.6953 215.362 76.894C217.47 78.0513 219.165 79.7459 220.446 81.9779C221.728 84.2099 222.368 86.9173 222.368 90.0999ZM215.424 90.0999C215.424 88.1986 215.032 86.5866 214.246 85.264C213.461 83.9 212.407 82.8873 211.084 82.2259C209.803 81.5233 208.377 81.172 206.806 81.172C205.525 81.172 204.264 81.5233 203.024 82.2259C201.784 82.8873 200.751 83.8793 199.924 85.202C199.139 86.5246 198.746 88.1573 198.746 90.0999C198.746 92.0426 199.139 93.6753 199.924 94.998C200.751 96.3206 201.784 97.3333 203.024 98.0359C204.264 98.6973 205.525 99.028 206.806 99.028C208.377 99.028 209.803 98.6973 211.084 98.0359C212.407 97.3333 213.461 96.3206 214.246 94.998C215.032 93.634 215.424 92.0013 215.424 90.0999Z" fill="#373737"/>
<path d="M173.135 104.98C170.242 104.98 167.679 104.36 165.447 103.12C163.256 101.88 161.562 100.144 160.363 97.912C159.164 95.68 158.565 93.076 158.565 90.1C158.565 87.0826 159.164 84.458 160.363 82.226C161.603 79.994 163.339 78.2786 165.571 77.08C167.803 75.84 170.428 75.22 173.445 75.22C176.462 75.22 179.025 75.7986 181.133 76.956C183.241 78.1133 184.853 79.7873 185.969 81.978C187.126 84.1273 187.705 86.7313 187.705 89.79C187.705 90.1206 187.684 90.472 187.643 90.844C187.643 91.216 187.622 91.4846 187.581 91.65H162.533V87.062H181.877L179.831 89.914C179.955 89.666 180.079 89.3353 180.203 88.922C180.368 88.4673 180.451 88.0953 180.451 87.806C180.451 86.2766 180.141 84.954 179.521 83.838C178.942 82.722 178.116 81.854 177.041 81.234C176.008 80.614 174.788 80.304 173.383 80.304C171.688 80.304 170.242 80.676 169.043 81.42C167.844 82.164 166.935 83.2386 166.315 84.644C165.695 86.0493 165.364 87.7853 165.323 89.852C165.323 91.9186 165.633 93.6753 166.253 95.122C166.873 96.5273 167.782 97.602 168.981 98.346C170.221 99.09 171.709 99.462 173.445 99.462C175.264 99.462 176.855 99.09 178.219 98.346C179.583 97.602 180.72 96.4653 181.629 94.936L187.395 97.292C185.907 99.8546 183.985 101.777 181.629 103.058C179.273 104.339 176.442 104.98 173.135 104.98Z" fill="#373737"/>
<path d="M141.634 104.98C138.74 104.98 136.178 104.36 133.946 103.12C131.755 101.88 130.06 100.144 128.862 97.912C127.663 95.68 127.064 93.076 127.064 90.1C127.064 87.0826 127.663 84.458 128.862 82.226C130.102 79.994 131.838 78.2786 134.07 77.08C136.302 75.84 138.926 75.22 141.944 75.22C144.961 75.22 147.524 75.7986 149.632 76.956C151.74 78.1133 153.352 79.7873 154.468 81.978C155.625 84.1273 156.204 86.7313 156.204 89.79C156.204 90.1206 156.183 90.472 156.142 90.844C156.142 91.216 156.121 91.4846 156.08 91.65H131.032V87.062H150.376L148.33 89.914C148.454 89.666 148.578 89.3353 148.702 88.922C148.867 88.4673 148.95 88.0953 148.95 87.806C148.95 86.2766 148.64 84.954 148.02 83.838C147.441 82.722 146.614 81.854 145.54 81.234C144.506 80.614 143.287 80.304 141.882 80.304C140.187 80.304 138.74 80.676 137.542 81.42C136.343 82.164 135.434 83.2386 134.814 84.644C134.194 86.0493 133.863 87.7853 133.822 89.852C133.822 91.9186 134.132 93.6753 134.752 95.122C135.372 96.5273 136.281 97.602 137.48 98.346C138.72 99.09 140.208 99.462 141.944 99.462C143.762 99.462 145.354 99.09 146.718 98.346C148.082 97.602 149.218 96.4653 150.128 94.936L155.894 97.292C154.406 99.8546 152.484 101.777 150.128 103.058C147.772 104.339 144.94 104.98 141.634 104.98Z" fill="#373737"/>
<path d="M115.836 56H122.532V104.36H115.836V56Z" fill="#373737"/>
<path d="M93.906 93.638C94.8153 94.63 95.7247 95.498 96.634 96.242C97.5847 96.9447 98.5353 97.482 99.486 97.854C100.437 98.1847 101.387 98.35 102.338 98.35C103.537 98.35 104.467 98.0813 105.128 97.544C105.831 97.0067 106.182 96.2627 106.182 95.312C106.182 94.4853 105.913 93.7827 105.376 93.204C104.839 92.584 104.095 92.0673 103.144 91.654C102.193 91.1993 101.077 90.7447 99.796 90.29C98.5147 89.794 97.2333 89.2153 95.952 88.554C94.712 87.8513 93.6787 86.942 92.852 85.826C92.0667 84.71 91.674 83.3047 91.674 81.61C91.674 79.874 92.108 78.4273 92.976 77.27C93.8853 76.1127 95.084 75.2653 96.572 74.728C98.1013 74.1493 99.734 73.86 101.47 73.86C103.041 73.86 104.508 74.0873 105.872 74.542C107.277 74.9967 108.538 75.596 109.654 76.34C110.77 77.084 111.721 77.9313 112.506 78.882L108.786 82.85C107.835 81.734 106.699 80.8247 105.376 80.122C104.053 79.4193 102.689 79.068 101.284 79.068C100.333 79.068 99.548 79.2747 98.928 79.688C98.308 80.1013 97.998 80.7007 97.998 81.486C97.998 82.1473 98.2667 82.7467 98.804 83.284C99.3827 83.78 100.127 84.2347 101.036 84.648C101.987 85.0613 103.041 85.4953 104.198 85.95C105.769 86.57 107.215 87.252 108.538 87.996C109.861 88.74 110.915 89.6493 111.7 90.724C112.527 91.7987 112.94 93.204 112.94 94.94C112.94 97.6267 112.01 99.7967 110.15 101.45C108.331 103.062 105.851 103.868 102.71 103.868C100.767 103.868 98.9693 103.579 97.316 103C95.704 102.38 94.278 101.595 93.038 100.644C91.8393 99.652 90.8267 98.6187 90 97.544L93.906 93.638Z" fill="#373737"/>
<g filter="url(#filter0_d_264_58)">
<path d="M35.3752 22.5178C29.2133 22.5178 14.5271 12.9815 7.05975 25.5987C0.305841 37.0105 6.27956 56.9715 10.1947 65.7381C14.3825 60.0852 18.7968 49.6595 35.3752 49.6595C49.0392 49.6595 54.5945 56.555 60.7565 65.9446C69.1191 41.2969 65.7447 30.0001 63.544 25.5987C53.4208 12.8348 41.5372 22.5178 35.3752 22.5178Z" fill="white"/>
</g>
<path d="M34.7884 54.354C39.8744 54.1094 51.3086 56.5534 56.355 67.1169C60.4209 75.6277 56.355 85.8975 53.4207 90.2989C52.5474 91.4545 51.4608 92.2323 50.6333 92.498C47.8457 92.498 47.2249 91.1792 46.3786 86.6306C45.2049 80.322 47.4056 64.6238 34.7884 64.6238C24.6946 64.6238 25.1053 77.0943 24.2251 86.6306C23.6382 89.4182 23.6089 92.498 21.7309 92.498C20.2638 92.498 18.5944 92.1794 17.1828 90.2989C13.3683 84.2837 10.6124 74.3073 14.2486 67.1169C19.4129 56.9049 30.0936 54.3533 34.7884 54.354Z" fill="#419DAF"/>
<defs>
<filter id="filter0_d_264_58" x="0" y="15" width="70.1145" height="54.9446" filterUnits="userSpaceOnUse" color-interpolation-filters="sRGB">
<feFlood flood-opacity="0" result="BackgroundImageFix"/>
<feColorMatrix in="SourceAlpha" type="matrix" values="0 0 0 0 0 0 0 0 0 0 0 0 0 0 0 0 0 0 127 0" result="hardAlpha"/>
<feOffset/>
<feGaussianBlur stdDeviation="2"/>
<feComposite in2="hardAlpha" operator="out"/>
<feColorMatrix type="matrix" values="0 0 0 0 0 0 0 0 0 0 0 0 0 0 0 0 0 0 0.25 0"/>
<feBlend mode="normal" in2="BackgroundImageFix" result="effect1_dropShadow_264_58"/>
<feBlend mode="normal" in="SourceGraphic" in2="effect1_dropShadow_264_58" result="shape"/>
</filter>
</defs>
</svg>
