<svg width="316" height="62" viewBox="0 0 316 62" fill="none" xmlns="http://www.w3.org/2000/svg">
<path d="M157.534 49.6199C154.434 49.6199 151.685 48.9586 149.288 47.636C146.932 46.3133 145.072 44.4533 143.708 42.0559C142.344 39.6173 141.662 36.7653 141.662 33.4999C141.662 30.0279 142.323 27.0726 143.646 24.6339C145.01 22.1953 146.746 20.3353 148.854 19.0539C151.003 17.7313 153.276 17.0699 155.674 17.0699C157.41 17.0699 159.104 17.3593 160.758 17.9379C162.411 18.4753 163.878 19.3433 165.16 20.5419C166.482 21.6993 167.536 23.1666 168.322 24.9439C169.148 26.6799 169.603 28.7673 169.686 31.2059C169.686 31.5366 169.562 31.8466 169.314 32.1359C169.066 32.3839 168.776 32.5079 168.446 32.5079H143.15L142.778 30.1519H167.764L167.144 30.7099V29.5939C166.937 27.4033 166.234 25.5639 165.036 24.0759C163.878 22.5879 162.473 21.4719 160.82 20.7279C159.166 19.9426 157.451 19.5499 155.674 19.5499C154.434 19.5499 153.132 19.8393 151.768 20.4179C150.404 20.9553 149.143 21.8026 147.986 22.9599C146.828 24.0759 145.878 25.5019 145.134 27.2379C144.431 28.9739 144.08 30.9993 144.08 33.3139C144.08 35.8353 144.576 38.1499 145.568 40.2579C146.601 42.3659 148.11 44.0606 150.094 45.3419C152.119 46.6233 154.599 47.2639 157.534 47.2639C158.939 47.2639 160.262 47.0366 161.502 46.5819C162.742 46.0859 163.858 45.4453 164.85 44.6599C165.842 43.8746 166.648 43.0273 167.268 42.1179C167.598 41.7459 167.95 41.5599 168.322 41.5599C168.611 41.5599 168.859 41.6839 169.066 41.9319C169.272 42.1386 169.376 42.3866 169.376 42.6759C169.376 42.9653 169.293 43.2133 169.128 43.4199C167.846 45.0733 166.193 46.5199 164.168 47.7599C162.184 48.9999 159.972 49.6199 157.534 49.6199Z" fill="#373737"/>
<path d="M136.698 47.76C136.698 48.0907 136.574 48.38 136.326 48.628C136.078 48.876 135.789 49 135.458 49C135.086 49 134.776 48.876 134.528 48.628C134.321 48.38 134.218 48.0907 134.218 47.76V4.35999C134.218 4.02933 134.342 3.73999 134.59 3.49199C134.838 3.244 135.127 3.12 135.458 3.12C135.83 3.12 136.119 3.244 136.326 3.49199C136.574 3.73999 136.698 4.02933 136.698 4.35999V47.76Z" fill="#373737"/>
<path d="M114.277 17.07C117.046 17.07 119.505 17.7727 121.655 19.178C123.804 20.542 125.499 22.4433 126.739 24.882C128.02 27.2793 128.661 30.0487 128.661 33.19C128.661 36.29 128.02 39.08 126.739 41.56C125.499 44.04 123.783 46.0033 121.593 47.45C119.443 48.8967 117.005 49.62 114.277 49.62C112.913 49.62 111.59 49.4133 110.309 49C109.069 48.5867 107.911 48.008 106.837 47.264C105.762 46.4787 104.77 45.5487 103.861 44.474C102.993 43.358 102.228 42.118 101.567 40.754L102.373 39.886V47.76C102.373 48.0907 102.249 48.38 102.001 48.628C101.794 48.876 101.505 49 101.133 49C100.802 49 100.513 48.876 100.265 48.628C100.017 48.38 99.8928 48.0907 99.8928 47.76V4.422C99.8928 4.09134 99.9962 3.802 100.203 3.554C100.451 3.30601 100.761 3.18201 101.133 3.18201C101.505 3.18201 101.794 3.30601 102.001 3.554C102.249 3.802 102.373 4.09134 102.373 4.422V26.866L101.567 26.432C102.145 24.9027 102.869 23.5593 103.737 22.402C104.605 21.2447 105.597 20.2733 106.713 19.488C107.829 18.7027 109.027 18.1033 110.309 17.69C111.59 17.2767 112.913 17.07 114.277 17.07ZM114.153 19.426C111.797 19.426 109.709 20.0253 107.891 21.224C106.113 22.3813 104.708 23.9933 103.675 26.06C102.641 28.1267 102.125 30.5033 102.125 33.19C102.125 35.8767 102.641 38.2947 103.675 40.444C104.708 42.552 106.113 44.226 107.891 45.466C109.709 46.6647 111.797 47.264 114.153 47.264C116.467 47.264 118.513 46.644 120.291 45.404C122.109 44.164 123.535 42.49 124.569 40.382C125.643 38.2327 126.181 35.8353 126.181 33.19C126.181 30.5033 125.643 28.1267 124.569 26.06C123.535 23.9933 122.109 22.3813 120.291 21.224C118.513 20.0253 116.467 19.426 114.153 19.426Z" fill="#373737"/>
<path d="M91.4836 18.0619C91.8556 18.0619 92.1449 18.1859 92.3516 18.4339C92.5996 18.6819 92.7236 18.9713 92.7236 19.3019V47.7599C92.7236 48.0906 92.5996 48.3799 92.3516 48.6279C92.1036 48.8759 91.8142 48.9999 91.4836 48.9999C91.1116 48.9999 90.8016 48.8759 90.5536 48.6279C90.3469 48.3799 90.2436 48.0906 90.2436 47.7599V38.9559L91.2356 38.1499C91.2356 39.4726 90.9049 40.8159 90.2436 42.1799C89.5822 43.5439 88.6729 44.7839 87.5156 45.9C86.3582 47.0159 84.9942 47.9253 83.4236 48.6279C81.8529 49.2893 80.1582 49.6199 78.3396 49.6199C75.5702 49.6199 73.0902 48.8966 70.8996 47.4499C68.7502 46.0033 67.0556 44.0399 65.8156 41.5599C64.5756 39.08 63.9556 36.2899 63.9556 33.1899C63.9556 30.0486 64.5756 27.2793 65.8156 24.8819C67.0969 22.4433 68.8122 20.5419 70.9616 19.1779C73.1522 17.7726 75.6116 17.0699 78.3396 17.0699C80.1169 17.0699 81.7909 17.4006 83.3616 18.0619C84.9322 18.6819 86.2962 19.5706 87.4536 20.7279C88.6522 21.8853 89.5822 23.2493 90.2436 24.8199C90.9049 26.3493 91.2356 28.0233 91.2356 29.8419L90.2436 28.2919V19.3019C90.2436 18.9713 90.3469 18.6819 90.5536 18.4339C90.8016 18.1859 91.1116 18.0619 91.4836 18.0619ZM78.4636 47.2639C80.7782 47.2639 82.8449 46.6646 84.6636 45.4659C86.4822 44.2259 87.9082 42.5519 88.9416 40.4439C89.9749 38.2946 90.4916 35.8766 90.4916 33.1899C90.4916 30.6273 89.9749 28.3126 88.9416 26.2459C87.9082 24.1379 86.4822 22.4846 84.6636 21.2859C82.8449 20.0459 80.7782 19.4259 78.4636 19.4259C76.1902 19.4259 74.1442 20.0253 72.3256 21.2239C70.5069 22.3813 69.0602 23.9933 67.9856 26.0599C66.9522 28.1266 66.4356 30.5033 66.4356 33.1899C66.4356 35.8766 66.9522 38.2946 67.9856 40.4439C69.0189 42.5519 70.4449 44.2259 72.2636 45.4659C74.0822 46.6646 76.1489 47.2639 78.4636 47.2639Z" fill="#373737"/>
<path d="M47.5711 17.0699C50.1751 17.0699 52.2831 17.5866 53.8951 18.6199C55.5484 19.6533 56.7471 21.0586 57.4911 22.8359C58.2764 24.6133 58.6691 26.5973 58.6691 28.7879V47.7599C58.6691 48.0906 58.5451 48.3799 58.2971 48.6279C58.0491 48.8759 57.7597 48.9999 57.4291 48.9999C57.0571 48.9999 56.7471 48.8759 56.4991 48.6279C56.2924 48.3799 56.1891 48.0906 56.1891 47.7599V29.0359C56.1891 27.2586 55.8791 25.6466 55.2591 24.1999C54.6804 22.7533 53.7297 21.5959 52.4071 20.7279C51.1257 19.8599 49.4311 19.4259 47.3231 19.4259C45.5044 19.4259 43.7271 19.8599 41.9911 20.7279C40.2551 21.5959 38.8084 22.7533 37.6511 24.1999C36.5351 25.6466 35.9771 27.2586 35.9771 29.0359V47.7599C35.9771 48.0906 35.8531 48.3799 35.6051 48.6279C35.3571 48.8759 35.0677 48.9999 34.7371 48.9999C34.3651 48.9999 34.0551 48.8759 33.8071 48.6279C33.6004 48.3799 33.4971 48.0906 33.4971 47.7599V19.3019C33.4971 18.9713 33.6211 18.6819 33.8691 18.4339C34.1171 18.1859 34.4064 18.0619 34.7371 18.0619C35.1091 18.0619 35.3984 18.1859 35.6051 18.4339C35.8531 18.6819 35.9771 18.9713 35.9771 19.3019V25.3779L34.4271 28.3539C34.4271 26.8659 34.8197 25.4399 35.6051 24.0759C36.3904 22.7119 37.4237 21.5133 38.7051 20.4799C39.9864 19.4053 41.3917 18.5786 42.9211 17.9999C44.4917 17.3799 46.0417 17.0699 47.5711 17.0699Z" fill="#373737"/>
<path d="M16.0961 49.6199C12.9961 49.6199 10.2475 48.9586 7.85012 47.636C5.49412 46.3133 3.63412 44.4533 2.27012 42.0559C0.906121 39.6173 0.224121 36.7653 0.224121 33.4999C0.224121 30.0279 0.885454 27.0726 2.20812 24.6339C3.57212 22.1953 5.30812 20.3353 7.41612 19.0539C9.56545 17.7313 11.8388 17.0699 14.2361 17.0699C15.9721 17.0699 17.6668 17.3593 19.3201 17.9379C20.9735 18.4753 22.4408 19.3433 23.7221 20.5419C25.0448 21.6993 26.0988 23.1666 26.8841 24.9439C27.7108 26.6799 28.1655 28.7673 28.2481 31.2059C28.2481 31.5366 28.1241 31.8466 27.8761 32.1359C27.6281 32.3839 27.3388 32.5079 27.0081 32.5079H1.71212L1.34012 30.1519H26.3261L25.7061 30.7099V29.5939C25.4995 27.4033 24.7968 25.5639 23.5981 24.0759C22.4408 22.5879 21.0355 21.4719 19.3821 20.7279C17.7288 19.9426 16.0135 19.5499 14.2361 19.5499C12.9961 19.5499 11.6941 19.8393 10.3301 20.4179C8.96612 20.9553 7.70546 21.8026 6.54812 22.9599C5.39079 24.0759 4.44012 25.5019 3.69612 27.2379C2.99345 28.9739 2.64212 30.9993 2.64212 33.3139C2.64212 35.8353 3.13812 38.1499 4.13012 40.2579C5.16345 42.3659 6.67212 44.0606 8.65612 45.3419C10.6815 46.6233 13.1615 47.2639 16.0961 47.2639C17.5015 47.2639 18.8241 47.0366 20.0641 46.5819C21.3041 46.0859 22.4201 45.4453 23.4121 44.6599C24.4041 43.8746 25.2101 43.0273 25.8301 42.1179C26.1608 41.7459 26.5121 41.5599 26.8841 41.5599C27.1735 41.5599 27.4215 41.6839 27.6281 41.9319C27.8348 42.1386 27.9381 42.3866 27.9381 42.6759C27.9381 42.9653 27.8555 43.2133 27.6901 43.4199C26.4088 45.0733 24.7555 46.5199 22.7301 47.7599C20.7461 48.9999 18.5348 49.6199 16.0961 49.6199Z" fill="#373737"/>
<path d="M291.42 62H284.662V19.84H291.42V62ZM315.042 34.0999C315.042 37.2413 314.401 39.9486 313.12 42.222C311.839 44.454 310.144 46.1693 308.036 47.368C305.928 48.5253 303.634 49.104 301.154 49.104C298.715 49.104 296.587 48.5046 294.768 47.306C292.991 46.066 291.606 44.33 290.614 42.0979C289.663 39.8246 289.188 37.1586 289.188 34.0999C289.188 30.9999 289.663 28.3339 290.614 26.1019C291.606 23.8699 292.991 22.1546 294.768 20.9559C296.587 19.7159 298.715 19.0959 301.154 19.0959C303.634 19.0959 305.928 19.6953 308.036 20.894C310.144 22.0513 311.839 23.7459 313.12 25.9779C314.401 28.2099 315.042 30.9173 315.042 34.0999ZM308.098 34.0999C308.098 32.1986 307.705 30.5866 306.92 29.264C306.135 27.9 305.081 26.8873 303.758 26.2259C302.477 25.5233 301.051 25.172 299.48 25.172C298.199 25.172 296.938 25.5233 295.698 26.2259C294.458 26.8873 293.425 27.8793 292.598 29.202C291.813 30.5246 291.42 32.1573 291.42 34.0999C291.42 36.0426 291.813 37.6753 292.598 38.998C293.425 40.3206 294.458 41.3333 295.698 42.0359C296.938 42.6973 298.199 43.028 299.48 43.028C301.051 43.028 302.477 42.6973 303.758 42.0359C305.081 41.3333 306.135 40.3206 306.92 38.998C307.705 37.634 308.098 36.0013 308.098 34.0999Z" fill="#373737"/>
<path d="M265.809 48.98C262.915 48.98 260.353 48.36 258.121 47.12C255.93 45.88 254.235 44.144 253.037 41.912C251.838 39.68 251.239 37.076 251.239 34.1C251.239 31.0826 251.838 28.458 253.037 26.226C254.277 23.994 256.013 22.2786 258.245 21.08C260.477 19.84 263.101 19.22 266.119 19.22C269.136 19.22 271.699 19.7986 273.807 20.956C275.915 22.1133 277.527 23.7873 278.643 25.978C279.8 28.1273 280.379 30.7313 280.379 33.79C280.379 34.1206 280.358 34.472 280.317 34.844C280.317 35.216 280.296 35.4846 280.255 35.65H255.207V31.062H274.551L272.505 33.914C272.629 33.666 272.753 33.3353 272.877 32.922C273.042 32.4673 273.125 32.0953 273.125 31.806C273.125 30.2766 272.815 28.954 272.195 27.838C271.616 26.722 270.789 25.854 269.715 25.234C268.681 24.614 267.462 24.304 266.057 24.304C264.362 24.304 262.915 24.676 261.717 25.42C260.518 26.164 259.609 27.2386 258.989 28.644C258.369 30.0493 258.038 31.7853 257.997 33.852C257.997 35.9186 258.307 37.6753 258.927 39.122C259.547 40.5273 260.456 41.602 261.655 42.346C262.895 43.09 264.383 43.462 266.119 43.462C267.937 43.462 269.529 43.09 270.893 42.346C272.257 41.602 273.393 40.4653 274.303 38.936L280.069 41.292C278.581 43.8546 276.659 45.7766 274.303 47.058C271.947 48.3393 269.115 48.98 265.809 48.98Z" fill="#373737"/>
<path d="M234.308 48.98C231.414 48.98 228.852 48.36 226.62 47.12C224.429 45.88 222.734 44.144 221.536 41.912C220.337 39.68 219.738 37.076 219.738 34.1C219.738 31.0826 220.337 28.458 221.536 26.226C222.776 23.994 224.512 22.2786 226.744 21.08C228.976 19.84 231.6 19.22 234.618 19.22C237.635 19.22 240.198 19.7986 242.306 20.956C244.414 22.1133 246.026 23.7873 247.142 25.978C248.299 28.1273 248.878 30.7313 248.878 33.79C248.878 34.1206 248.857 34.472 248.816 34.844C248.816 35.216 248.795 35.4846 248.754 35.65H223.706V31.062H243.05L241.004 33.914C241.128 33.666 241.252 33.3353 241.376 32.922C241.541 32.4673 241.624 32.0953 241.624 31.806C241.624 30.2766 241.314 28.954 240.694 27.838C240.115 26.722 239.288 25.854 238.214 25.234C237.18 24.614 235.961 24.304 234.556 24.304C232.861 24.304 231.414 24.676 230.216 25.42C229.017 26.164 228.108 27.2386 227.488 28.644C226.868 30.0493 226.537 31.7853 226.496 33.852C226.496 35.9186 226.806 37.6753 227.426 39.122C228.046 40.5273 228.955 41.602 230.154 42.346C231.394 43.09 232.882 43.462 234.618 43.462C236.436 43.462 238.028 43.09 239.392 42.346C240.756 41.602 241.892 40.4653 242.802 38.936L248.568 41.292C247.08 43.8546 245.158 45.7766 242.802 47.058C240.446 48.3393 237.614 48.98 234.308 48.98Z" fill="#373737"/>
<path d="M208.51 0H215.206V48.36H208.51V0Z" fill="#373737"/>
<path d="M186.58 37.638C187.489 38.63 188.398 39.498 189.308 40.242C190.258 40.9447 191.209 41.482 192.16 41.854C193.11 42.1847 194.061 42.35 195.012 42.35C196.21 42.35 197.14 42.0813 197.802 41.544C198.504 41.0067 198.856 40.2627 198.856 39.312C198.856 38.4853 198.587 37.7827 198.05 37.204C197.512 36.584 196.768 36.0673 195.818 35.654C194.867 35.1993 193.751 34.7447 192.47 34.29C191.188 33.794 189.907 33.2153 188.626 32.554C187.386 31.8513 186.352 30.942 185.526 29.826C184.74 28.71 184.348 27.3047 184.348 25.61C184.348 23.874 184.782 22.4273 185.65 21.27C186.559 20.1127 187.758 19.2653 189.246 18.728C190.775 18.1493 192.408 17.86 194.144 17.86C195.714 17.86 197.182 18.0873 198.546 18.542C199.951 18.9967 201.212 19.596 202.328 20.34C203.444 21.084 204.394 21.9313 205.18 22.882L201.46 26.85C200.509 25.734 199.372 24.8247 198.05 24.122C196.727 23.4193 195.363 23.068 193.958 23.068C193.007 23.068 192.222 23.2747 191.602 23.688C190.982 24.1013 190.672 24.7007 190.672 25.486C190.672 26.1473 190.94 26.7467 191.478 27.284C192.056 27.78 192.8 28.2347 193.71 28.648C194.66 29.0613 195.714 29.4953 196.872 29.95C198.442 30.57 199.889 31.252 201.212 31.996C202.534 32.74 203.588 33.6493 204.374 34.724C205.2 35.7987 205.614 37.204 205.614 38.94C205.614 41.6267 204.684 43.7967 202.824 45.45C201.005 47.062 198.525 47.868 195.384 47.868C193.441 47.868 191.643 47.5787 189.99 47C188.378 46.38 186.952 45.5947 185.712 44.644C184.513 43.652 183.5 42.6187 182.674 41.544L186.58 37.638Z" fill="#373737"/>
</svg>
