<svg width="319" height="78" viewBox="0 0 319 78" fill="none" xmlns="http://www.w3.org/2000/svg">
<path d="M19.096 62.62C15.996 62.62 13.2473 61.9587 10.85 60.636C8.494 59.3133 6.634 57.4533 5.27 55.056C3.906 52.6173 3.224 49.7653 3.224 46.5C3.224 43.028 3.88533 40.0727 5.208 37.634C6.572 35.1953 8.308 33.3353 10.416 32.054C12.5653 30.7313 14.8387 30.07 17.236 30.07C18.972 30.07 20.6667 30.3593 22.32 30.938C23.9733 31.4753 25.4407 32.3433 26.722 33.542C28.0447 34.6993 29.0987 36.1667 29.884 37.944C30.7107 39.68 31.1653 41.7673 31.248 44.206C31.248 44.5367 31.124 44.8467 30.876 45.136C30.628 45.384 30.3387 45.508 30.008 45.508H4.712L4.34 43.152H29.326L28.706 43.71V42.594C28.4993 40.4033 27.7967 38.564 26.598 37.076C25.4407 35.588 24.0353 34.472 22.382 33.728C20.7287 32.9427 19.0133 32.55 17.236 32.55C15.996 32.55 14.694 32.8393 13.33 33.418C11.966 33.9553 10.7053 34.8027 9.548 35.96C8.39067 37.076 7.44 38.502 6.696 40.238C5.99333 41.974 5.642 43.9993 5.642 46.314C5.642 48.8353 6.138 51.15 7.13 53.258C8.16333 55.366 9.672 57.0607 11.656 58.342C13.6813 59.6233 16.1613 60.264 19.096 60.264C20.5013 60.264 21.824 60.0367 23.064 59.582C24.304 59.086 25.42 58.4453 26.412 57.66C27.404 56.8747 28.21 56.0273 28.83 55.118C29.1607 54.746 29.512 54.56 29.884 54.56C30.1733 54.56 30.4213 54.684 30.628 54.932C30.8347 55.1387 30.938 55.3867 30.938 55.676C30.938 55.9653 30.8553 56.2133 30.69 56.42C29.4087 58.0733 27.7553 59.52 25.73 60.76C23.746 62 21.5347 62.62 19.096 62.62ZM50.5712 30.07C53.1752 30.07 55.2832 30.5867 56.8952 31.62C58.5485 32.6533 59.7472 34.0587 60.4912 35.836C61.2765 37.6133 61.6692 39.5973 61.6692 41.788V60.76C61.6692 61.0907 61.5452 61.38 61.2972 61.628C61.0492 61.876 60.7598 62 60.4292 62C60.0572 62 59.7472 61.876 59.4992 61.628C59.2925 61.38 59.1892 61.0907 59.1892 60.76V42.036C59.1892 40.2587 58.8792 38.6467 58.2592 37.2C57.6805 35.7533 56.7298 34.596 55.4072 33.728C54.1258 32.86 52.4312 32.426 50.3232 32.426C48.5045 32.426 46.7272 32.86 44.9912 33.728C43.2552 34.596 41.8085 35.7533 40.6512 37.2C39.5352 38.6467 38.9772 40.2587 38.9772 42.036V60.76C38.9772 61.0907 38.8532 61.38 38.6052 61.628C38.3572 61.876 38.0678 62 37.7372 62C37.3652 62 37.0552 61.876 36.8072 61.628C36.6005 61.38 36.4972 61.0907 36.4972 60.76V32.302C36.4972 31.9713 36.6212 31.682 36.8692 31.434C37.1172 31.186 37.4065 31.062 37.7372 31.062C38.1092 31.062 38.3985 31.186 38.6052 31.434C38.8532 31.682 38.9772 31.9713 38.9772 32.302V38.378L37.4272 41.354C37.4272 39.866 37.8198 38.44 38.6052 37.076C39.3905 35.712 40.4238 34.5133 41.7052 33.48C42.9865 32.4053 44.3918 31.5787 45.9212 31C47.4918 30.38 49.0418 30.07 50.5712 30.07ZM94.4836 31.062C94.8556 31.062 95.145 31.186 95.3516 31.434C95.5996 31.682 95.7236 31.9713 95.7236 32.302V60.76C95.7236 61.0907 95.5996 61.38 95.3516 61.628C95.1036 61.876 94.8143 62 94.4836 62C94.1116 62 93.8016 61.876 93.5536 61.628C93.347 61.38 93.2436 61.0907 93.2436 60.76V51.956L94.2356 51.15C94.2356 52.4727 93.905 53.816 93.2436 55.18C92.5823 56.544 91.673 57.784 90.5156 58.9C89.3583 60.016 87.9943 60.9253 86.4236 61.628C84.853 62.2893 83.1583 62.62 81.3396 62.62C78.5703 62.62 76.0903 61.8967 73.8996 60.45C71.7503 59.0033 70.0556 57.04 68.8156 54.56C67.5756 52.08 66.9556 49.29 66.9556 46.19C66.9556 43.0487 67.5756 40.2793 68.8156 37.882C70.097 35.4433 71.8123 33.542 73.9616 32.178C76.1523 30.7727 78.6116 30.07 81.3396 30.07C83.117 30.07 84.791 30.4007 86.3616 31.062C87.9323 31.682 89.2963 32.5707 90.4536 33.728C91.6523 34.8853 92.5823 36.2493 93.2436 37.82C93.905 39.3493 94.2356 41.0233 94.2356 42.842L93.2436 41.292V32.302C93.2436 31.9713 93.347 31.682 93.5536 31.434C93.8016 31.186 94.1116 31.062 94.4836 31.062ZM81.4636 60.264C83.7783 60.264 85.845 59.6647 87.6636 58.466C89.4823 57.226 90.9083 55.552 91.9416 53.444C92.975 51.2947 93.4916 48.8767 93.4916 46.19C93.4916 43.6273 92.975 41.3127 91.9416 39.246C90.9083 37.138 89.4823 35.4847 87.6636 34.286C85.845 33.046 83.7783 32.426 81.4636 32.426C79.1903 32.426 77.1443 33.0253 75.3256 34.224C73.507 35.3813 72.0603 36.9933 70.9856 39.06C69.9523 41.1267 69.4356 43.5033 69.4356 46.19C69.4356 48.8767 69.9523 51.2947 70.9856 53.444C72.019 55.552 73.445 57.226 75.2636 58.466C77.0823 59.6647 79.149 60.264 81.4636 60.264ZM117.277 30.07C120.046 30.07 122.506 30.7727 124.655 32.178C126.804 33.542 128.499 35.4433 129.739 37.882C131.02 40.2793 131.661 43.0487 131.661 46.19C131.661 49.29 131.02 52.08 129.739 54.56C128.499 57.04 126.784 59.0033 124.593 60.45C122.444 61.8967 120.005 62.62 117.277 62.62C115.913 62.62 114.59 62.4133 113.309 62C112.069 61.5867 110.912 61.008 109.837 60.264C108.762 59.4787 107.77 58.5487 106.861 57.474C105.993 56.358 105.228 55.118 104.567 53.754L105.373 52.886V60.76C105.373 61.0907 105.249 61.38 105.001 61.628C104.794 61.876 104.505 62 104.133 62C103.802 62 103.513 61.876 103.265 61.628C103.017 61.38 102.893 61.0907 102.893 60.76V17.422C102.893 17.0913 102.996 16.802 103.203 16.554C103.451 16.306 103.761 16.182 104.133 16.182C104.505 16.182 104.794 16.306 105.001 16.554C105.249 16.802 105.373 17.0913 105.373 17.422V39.866L104.567 39.432C105.146 37.9027 105.869 36.5593 106.737 35.402C107.605 34.2447 108.597 33.2733 109.713 32.488C110.829 31.7027 112.028 31.1033 113.309 30.69C114.59 30.2767 115.913 30.07 117.277 30.07ZM117.153 32.426C114.797 32.426 112.71 33.0253 110.891 34.224C109.114 35.3813 107.708 36.9933 106.675 39.06C105.642 41.1267 105.125 43.5033 105.125 46.19C105.125 48.8767 105.642 51.2947 106.675 53.444C107.708 55.552 109.114 57.226 110.891 58.466C112.71 59.6647 114.797 60.264 117.153 60.264C119.468 60.264 121.514 59.644 123.291 58.404C125.11 57.164 126.536 55.49 127.569 53.382C128.644 51.2327 129.181 48.8353 129.181 46.19C129.181 43.5033 128.644 41.1267 127.569 39.06C126.536 36.9933 125.11 35.3813 123.291 34.224C121.514 33.0253 119.468 32.426 117.153 32.426ZM139.698 60.76C139.698 61.0907 139.574 61.38 139.326 61.628C139.078 61.876 138.789 62 138.458 62C138.086 62 137.776 61.876 137.528 61.628C137.321 61.38 137.218 61.0907 137.218 60.76V17.36C137.218 17.0293 137.342 16.74 137.59 16.492C137.838 16.244 138.127 16.12 138.458 16.12C138.83 16.12 139.119 16.244 139.326 16.492C139.574 16.74 139.698 17.0293 139.698 17.36V60.76ZM160.534 62.62C157.434 62.62 154.685 61.9587 152.288 60.636C149.932 59.3133 148.072 57.4533 146.708 55.056C145.344 52.6173 144.662 49.7653 144.662 46.5C144.662 43.028 145.323 40.0727 146.646 37.634C148.01 35.1953 149.746 33.3353 151.854 32.054C154.003 30.7313 156.276 30.07 158.674 30.07C160.41 30.07 162.104 30.3593 163.758 30.938C165.411 31.4753 166.878 32.3433 168.16 33.542C169.482 34.6993 170.536 36.1667 171.322 37.944C172.148 39.68 172.603 41.7673 172.686 44.206C172.686 44.5367 172.562 44.8467 172.314 45.136C172.066 45.384 171.776 45.508 171.446 45.508H146.15L145.778 43.152H170.764L170.144 43.71V42.594C169.937 40.4033 169.234 38.564 168.036 37.076C166.878 35.588 165.473 34.472 163.82 33.728C162.166 32.9427 160.451 32.55 158.674 32.55C157.434 32.55 156.132 32.8393 154.768 33.418C153.404 33.9553 152.143 34.8027 150.986 35.96C149.828 37.076 148.878 38.502 148.134 40.238C147.431 41.974 147.08 43.9993 147.08 46.314C147.08 48.8353 147.576 51.15 148.568 53.258C149.601 55.366 151.11 57.0607 153.094 58.342C155.119 59.6233 157.599 60.264 160.534 60.264C161.939 60.264 163.262 60.0367 164.502 59.582C165.742 59.086 166.858 58.4453 167.85 57.66C168.842 56.8747 169.648 56.0273 170.268 55.118C170.598 54.746 170.95 54.56 171.322 54.56C171.611 54.56 171.859 54.684 172.066 54.932C172.272 55.1387 172.376 55.3867 172.376 55.676C172.376 55.9653 172.293 56.2133 172.128 56.42C170.846 58.0733 169.193 59.52 167.168 60.76C165.184 62 162.972 62.62 160.534 62.62Z" fill="white"/>
<path d="M294.42 75H287.662V32.84H294.42V75ZM318.042 47.0999C318.042 50.2413 317.401 52.9486 316.12 55.222C314.839 57.454 313.144 59.1693 311.036 60.368C308.928 61.5253 306.634 62.104 304.154 62.104C301.715 62.104 299.587 61.5046 297.768 60.306C295.991 59.066 294.606 57.33 293.614 55.0979C292.663 52.8246 292.188 50.1586 292.188 47.0999C292.188 43.9999 292.663 41.3339 293.614 39.1019C294.606 36.8699 295.991 35.1546 297.768 33.9559C299.587 32.7159 301.715 32.0959 304.154 32.0959C306.634 32.0959 308.928 32.6953 311.036 33.894C313.144 35.0513 314.839 36.7459 316.12 38.9779C317.401 41.2099 318.042 43.9173 318.042 47.0999ZM311.098 47.0999C311.098 45.1986 310.705 43.5866 309.92 42.264C309.135 40.9 308.081 39.8873 306.758 39.2259C305.477 38.5233 304.051 38.172 302.48 38.172C301.199 38.172 299.938 38.5233 298.698 39.2259C297.458 39.8873 296.425 40.8793 295.598 42.202C294.813 43.5246 294.42 45.1573 294.42 47.0999C294.42 49.0426 294.813 50.6753 295.598 51.998C296.425 53.3206 297.458 54.3333 298.698 55.0359C299.938 55.6973 301.199 56.028 302.48 56.028C304.051 56.028 305.477 55.6973 306.758 55.0359C308.081 54.3333 309.135 53.3206 309.92 51.998C310.705 50.634 311.098 49.0013 311.098 47.0999Z" fill="white"/>
<path d="M268.809 61.98C265.915 61.98 263.353 61.36 261.121 60.12C258.93 58.88 257.235 57.144 256.037 54.912C254.838 52.68 254.239 50.076 254.239 47.1C254.239 44.0826 254.838 41.458 256.037 39.226C257.277 36.994 259.013 35.2786 261.245 34.08C263.477 32.84 266.101 32.22 269.119 32.22C272.136 32.22 274.699 32.7986 276.807 33.956C278.915 35.1133 280.527 36.7873 281.643 38.978C282.8 41.1273 283.379 43.7313 283.379 46.79C283.379 47.1206 283.358 47.472 283.317 47.844C283.317 48.216 283.296 48.4846 283.255 48.65H258.207V44.062H277.551L275.505 46.914C275.629 46.666 275.753 46.3353 275.877 45.922C276.042 45.4673 276.125 45.0953 276.125 44.806C276.125 43.2766 275.815 41.954 275.195 40.838C274.616 39.722 273.789 38.854 272.715 38.234C271.681 37.614 270.462 37.304 269.057 37.304C267.362 37.304 265.915 37.676 264.717 38.42C263.518 39.164 262.609 40.2386 261.989 41.644C261.369 43.0493 261.038 44.7853 260.997 46.852C260.997 48.9186 261.307 50.6753 261.927 52.122C262.547 53.5273 263.456 54.602 264.655 55.346C265.895 56.09 267.383 56.462 269.119 56.462C270.937 56.462 272.529 56.09 273.893 55.346C275.257 54.602 276.393 53.4653 277.303 51.936L283.069 54.292C281.581 56.8546 279.659 58.7766 277.303 60.058C274.947 61.3393 272.115 61.98 268.809 61.98Z" fill="white"/>
<path d="M237.308 61.98C234.414 61.98 231.852 61.36 229.62 60.12C227.429 58.88 225.734 57.144 224.536 54.912C223.337 52.68 222.738 50.076 222.738 47.1C222.738 44.0826 223.337 41.458 224.536 39.226C225.776 36.994 227.512 35.2786 229.744 34.08C231.976 32.84 234.6 32.22 237.618 32.22C240.635 32.22 243.198 32.7986 245.306 33.956C247.414 35.1133 249.026 36.7873 250.142 38.978C251.299 41.1273 251.878 43.7313 251.878 46.79C251.878 47.1206 251.857 47.472 251.816 47.844C251.816 48.216 251.795 48.4846 251.754 48.65H226.706V44.062H246.05L244.004 46.914C244.128 46.666 244.252 46.3353 244.376 45.922C244.541 45.4673 244.624 45.0953 244.624 44.806C244.624 43.2766 244.314 41.954 243.694 40.838C243.115 39.722 242.288 38.854 241.214 38.234C240.18 37.614 238.961 37.304 237.556 37.304C235.861 37.304 234.414 37.676 233.216 38.42C232.017 39.164 231.108 40.2386 230.488 41.644C229.868 43.0493 229.537 44.7853 229.496 46.852C229.496 48.9186 229.806 50.6753 230.426 52.122C231.046 53.5273 231.955 54.602 233.154 55.346C234.394 56.09 235.882 56.462 237.618 56.462C239.436 56.462 241.028 56.09 242.392 55.346C243.756 54.602 244.892 53.4653 245.802 51.936L251.568 54.292C250.08 56.8546 248.158 58.7766 245.802 60.058C243.446 61.3393 240.614 61.98 237.308 61.98Z" fill="white"/>
<path d="M211.51 13H218.206V61.36H211.51V13Z" fill="white"/>
<path d="M189.58 50.638C190.489 51.63 191.398 52.498 192.308 53.242C193.258 53.9447 194.209 54.482 195.16 54.854C196.11 55.1847 197.061 55.35 198.012 55.35C199.21 55.35 200.14 55.0813 200.802 54.544C201.504 54.0067 201.856 53.2627 201.856 52.312C201.856 51.4853 201.587 50.7827 201.05 50.204C200.512 49.584 199.768 49.0673 198.818 48.654C197.867 48.1993 196.751 47.7447 195.47 47.29C194.188 46.794 192.907 46.2153 191.626 45.554C190.386 44.8513 189.352 43.942 188.526 42.826C187.74 41.71 187.348 40.3047 187.348 38.61C187.348 36.874 187.782 35.4273 188.65 34.27C189.559 33.1127 190.758 32.2653 192.246 31.728C193.775 31.1493 195.408 30.86 197.144 30.86C198.714 30.86 200.182 31.0873 201.546 31.542C202.951 31.9967 204.212 32.596 205.328 33.34C206.444 34.084 207.394 34.9313 208.18 35.882L204.46 39.85C203.509 38.734 202.372 37.8247 201.05 37.122C199.727 36.4193 198.363 36.068 196.958 36.068C196.007 36.068 195.222 36.2747 194.602 36.688C193.982 37.1013 193.672 37.7007 193.672 38.486C193.672 39.1473 193.94 39.7467 194.478 40.284C195.056 40.78 195.8 41.2347 196.71 41.648C197.66 42.0613 198.714 42.4953 199.872 42.95C201.442 43.57 202.889 44.252 204.212 44.996C205.534 45.74 206.588 46.6493 207.374 47.724C208.2 48.7987 208.614 50.204 208.614 51.94C208.614 54.6267 207.684 56.7967 205.824 58.45C204.005 60.062 201.525 60.868 198.384 60.868C196.441 60.868 194.643 60.5787 192.99 60C191.378 59.38 189.952 58.5947 188.712 57.644C187.513 56.652 186.5 55.6187 185.674 54.544L189.58 50.638Z" fill="white"/>
</svg>
